<svg width="159" height="44" viewBox="0 0 159 44" fill="none" xmlns="http://www.w3.org/2000/svg">
<path d="M71.14 23.6955C71.14 25.9155 70.77 27.8555 70.03 29.5155C69.31 31.1555 68.2 32.4355 66.7 33.3555C65.2 34.2755 63.28 34.7355 60.94 34.7355C58.62 34.7355 56.7 34.2755 55.18 33.3555C53.68 32.4355 52.56 31.1455 51.82 29.4855C51.1 27.8255 50.74 25.8855 50.74 23.6655C50.74 21.4455 51.1 19.5155 51.82 17.8755C52.56 16.2355 53.68 14.9655 55.18 14.0655C56.7 13.1455 58.63 12.6855 60.97 12.6855C63.29 12.6855 65.2 13.1455 66.7 14.0655C68.2 14.9655 69.31 16.2455 70.03 17.9055C70.77 19.5455 71.14 21.4755 71.14 23.6955ZM55.51 23.6955C55.51 25.9355 55.94 27.7055 56.8 29.0055C57.66 30.2855 59.04 30.9255 60.94 30.9255C62.88 30.9255 64.27 30.2855 65.11 29.0055C65.95 27.7055 66.37 25.9355 66.37 23.6955C66.37 21.4355 65.95 19.6655 65.11 18.3855C64.27 17.1055 62.89 16.4655 60.97 16.4655C59.05 16.4655 57.66 17.1055 56.8 18.3855C55.94 19.6655 55.51 21.4355 55.51 23.6955ZM101.594 13.0155L96.134 34.4355H90.974L88.064 23.1855C88.004 22.9655 87.924 22.6355 87.824 22.1955C87.744 21.7555 87.644 21.2755 87.524 20.7555C87.424 20.2355 87.334 19.7455 87.254 19.2855C87.174 18.8055 87.114 18.4355 87.074 18.1755C87.054 18.4355 86.994 18.8055 86.894 19.2855C86.814 19.7455 86.724 20.2355 86.624 20.7555C86.524 21.2555 86.424 21.7355 86.324 22.1955C86.224 22.6355 86.144 22.9755 86.084 23.2155L83.204 34.4355H78.044L72.584 13.0155H77.054L79.784 24.7155C79.904 25.1755 80.034 25.7555 80.174 26.4555C80.314 27.1555 80.444 27.8555 80.564 28.5555C80.684 29.2555 80.774 29.8455 80.834 30.3255C80.894 29.8255 80.984 29.2355 81.104 28.5555C81.224 27.8555 81.344 27.1855 81.464 26.5455C81.604 25.8855 81.724 25.3755 81.824 25.0155L84.944 13.0155H89.234L92.354 25.0155C92.454 25.3555 92.564 25.8555 92.684 26.5155C92.824 27.1755 92.954 27.8555 93.074 28.5555C93.194 29.2555 93.284 29.8455 93.344 30.3255C93.404 29.8255 93.494 29.2355 93.614 28.5555C93.734 27.8555 93.864 27.1555 94.004 26.4555C94.164 25.7555 94.294 25.1755 94.394 24.7155L97.124 13.0155H101.594ZM104.288 34.4355V13.0155H108.818V30.6855H117.518V34.4355H104.288Z" fill="#7653FC"/>
<path d="M128.352 32.8355C128.72 32.8355 129.056 32.8115 129.36 32.7635C129.68 32.7155 129.968 32.6435 130.224 32.5475V33.3395C129.968 33.4355 129.68 33.5155 129.36 33.5795C129.04 33.6435 128.68 33.6755 128.28 33.6755C127.176 33.6755 126.384 33.3635 125.904 32.7395C125.424 32.1155 125.184 31.2035 125.184 30.0035V21.5315H123.264V20.9075L125.184 20.6915L125.472 17.6195H126.12V20.7155H130.152V21.5315H126.12V29.9315C126.12 30.8755 126.28 31.5955 126.6 32.0915C126.936 32.5875 127.52 32.8355 128.352 32.8355ZM143.403 27.0755C143.403 28.3555 143.195 29.4915 142.779 30.4835C142.379 31.4755 141.763 32.2595 140.931 32.8355C140.099 33.3955 139.059 33.6755 137.811 33.6755C136.611 33.6755 135.595 33.3955 134.763 32.8355C133.947 32.2755 133.323 31.4995 132.891 30.5075C132.475 29.5155 132.267 28.3715 132.267 27.0755C132.267 25.0435 132.763 23.4355 133.755 22.2515C134.763 21.0675 136.155 20.4755 137.931 20.4755C139.195 20.4755 140.227 20.7635 141.027 21.3395C141.827 21.9155 142.419 22.6995 142.803 23.6915C143.203 24.6835 143.403 25.8115 143.403 27.0755ZM133.227 27.0755C133.227 28.7875 133.603 30.1795 134.355 31.2515C135.107 32.3075 136.259 32.8355 137.811 32.8355C138.883 32.8355 139.763 32.5955 140.451 32.1155C141.139 31.6195 141.643 30.9395 141.963 30.0755C142.283 29.2115 142.443 28.2115 142.443 27.0755C142.443 25.9875 142.291 25.0115 141.987 24.1475C141.683 23.2835 141.195 22.5955 140.523 22.0835C139.867 21.5715 139.003 21.3155 137.931 21.3155C136.411 21.3155 135.243 21.8275 134.427 22.8515C133.627 23.8595 133.227 25.2675 133.227 27.0755ZM152.452 20.4755C154.116 20.4755 155.388 21.0275 156.268 22.1315C157.164 23.2355 157.612 24.8515 157.612 26.9795C157.612 29.1235 157.14 30.7795 156.196 31.9475C155.252 33.0995 153.94 33.6755 152.26 33.6755C151.06 33.6755 150.1 33.4035 149.38 32.8595C148.676 32.3155 148.18 31.6595 147.892 30.8915H147.844C147.86 31.3715 147.868 31.8675 147.868 32.3795C147.884 32.8755 147.892 33.3555 147.892 33.8195V39.0515H146.98V20.7155H147.748L147.844 23.4995H147.892C148.084 22.9715 148.38 22.4835 148.78 22.0355C149.18 21.5715 149.684 21.1955 150.292 20.9075C150.9 20.6195 151.62 20.4755 152.452 20.4755ZM152.38 21.3155C150.892 21.3155 149.772 21.8115 149.02 22.8035C148.284 23.7795 147.908 25.1715 147.892 26.9795V27.1235C147.892 29.0595 148.268 30.4995 149.02 31.4435C149.772 32.3715 150.836 32.8355 152.212 32.8355C153.62 32.8355 154.708 32.3315 155.476 31.3235C156.26 30.3155 156.652 28.8675 156.652 26.9795C156.652 23.2035 155.228 21.3155 152.38 21.3155Z" fill="#7653FC"/>
<path d="M41 1.74391C41 1.0926 40.4622 0.564575 39.7988 0.564575C39.1355 0.564575 38.5977 1.0926 38.5977 1.74391C38.5977 3.02254 37.4609 4.10266 36.1152 4.10266H30.6968C27.6077 2.55891 24.0892 1.74399 20.5 1.74399C16.9108 1.74399 13.3923 2.55891 10.3032 4.10266H4.89942C3.54586 4.10274 2.40234 3.02254 2.40234 1.74391C2.40234 1.0926 1.86454 0.564575 1.20117 0.564575C0.537805 0.564575 0 1.0926 0 1.74391V5.28199C0 7.46997 0.88198 9.53176 2.48386 11.0935C0.856035 13.7063 0 16.569 0 19.4341C0 29.1884 9.19625 37.1241 20.5 37.1241C31.8037 37.1241 41 29.1884 41 19.4341C41 16.5734 40.1464 13.7145 38.523 11.1048C40.0529 9.61086 41 7.55205 41 5.28207V1.74391ZM20.5001 4.10274C22.4136 4.10274 24.3025 4.36093 26.0992 4.86026C24.7576 5.38813 23.5262 6.18253 22.474 7.21712C21.6723 8.00547 21.0131 8.89594 20.5074 9.85812C20.0017 8.89594 19.3425 8.00547 18.5407 7.21712C17.487 6.18096 16.2535 5.38577 14.9094 4.8579C16.7036 4.36015 18.5895 4.10274 20.5001 4.10274ZM20.5 23.682C20.9492 24.4139 21.5108 25.072 22.1611 25.6335L20.5 28.7097L18.8389 25.6335C19.4892 25.072 20.0508 24.4139 20.5 23.682ZM13.293 25.3308C9.98134 25.3308 7.28711 22.6855 7.28711 19.4341C7.28711 16.1827 9.98134 13.5374 13.293 13.5374C16.6046 13.5374 19.2988 16.1827 19.2988 19.4341C19.2988 22.6855 16.6046 25.3308 13.293 25.3308ZM21.7012 19.4341C21.7012 19.3403 21.704 19.2471 21.7084 19.1543C21.7167 19.098 21.7225 19.0407 21.7223 18.9821V18.9596C21.9695 15.9294 24.5582 13.5374 27.707 13.5374C31.0187 13.5374 33.7129 16.1827 33.7129 19.4341C33.7129 22.6855 31.0187 25.3308 27.707 25.3308C24.3954 25.3308 21.7012 22.6855 21.7012 19.4341ZM2.42621 5.80593C3.17278 6.23332 4.0212 6.4614 4.89942 6.4614H10.5791H10.585H10.8906C13.139 6.4614 15.2521 7.32169 16.8407 8.88376C18.1513 10.1725 18.9743 11.8112 19.2204 13.5847C17.8662 12.2618 16.0568 11.3883 14.0459 11.2122C13.956 11.1911 13.8626 11.1787 13.7661 11.1787H8.50286C7.1907 11.1787 5.97455 10.7755 4.97846 10.0916C4.91423 10.0187 4.84104 9.95168 4.7568 9.89421C4.70067 9.85592 4.64205 9.82424 4.58223 9.79648C3.3801 8.81952 2.57227 7.40322 2.42621 5.80593ZM38.5977 19.4341C38.5977 27.8878 30.4791 34.7654 20.5 34.7654C10.5209 34.7654 2.40234 27.8878 2.40234 19.4341C2.40234 17.0745 3.09582 14.7032 4.41687 12.5137C5.36259 13.0225 6.39808 13.3501 7.47769 13.4773C5.88062 14.9808 4.88477 17.0953 4.88477 19.4341C4.88477 23.9861 8.65668 27.6894 13.293 27.6894C14.5513 27.6894 15.7457 27.4161 16.8185 26.9277L19.4387 31.7799C19.6471 32.1656 20.0553 32.4068 20.5 32.4068C20.9447 32.4068 21.3529 32.1656 21.5613 31.7799L24.1815 26.9277C25.2543 27.4161 26.4488 27.6894 27.707 27.6894C32.3433 27.6894 36.1152 23.9861 36.1152 19.4341C36.1152 17.096 35.1199 14.982 33.5237 13.4785C34.6228 13.3509 35.6581 13.0185 36.5878 12.5214C37.9058 14.7088 38.5977 17.0775 38.5977 19.4341ZM36.3987 9.81543C36.3475 9.84051 36.2972 9.86811 36.2489 9.90105C36.1712 9.95404 36.1028 10.0151 36.042 10.0813C35.0456 10.7713 33.8271 11.1787 32.5117 11.1787H27.2484C27.1547 11.1787 27.0639 11.1902 26.9764 11.2102C24.9648 11.381 23.1538 12.2499 21.7964 13.5685C22.0453 11.8012 22.8673 10.1685 24.1739 8.88368C25.7625 7.32161 27.8756 6.46133 30.1239 6.46133H30.3957C30.3984 6.46133 30.401 6.46156 30.4037 6.46156C30.406 6.46156 30.4083 6.46133 30.4106 6.46133H36.1152C36.9885 6.46133 37.8315 6.23544 38.5732 5.81222C38.425 7.41753 37.6096 8.83918 36.3987 9.81543Z" fill="#7653FC"/>
<path d="M13.5 16.6835L14.5103 19.2744H17.7798L15.1347 20.8758L16.145 23.4667L13.5 21.8654L10.855 23.4667L11.8653 20.8758L9.22025 19.2744H12.4897L13.5 16.6835Z" fill="#7653FC"/>
<path d="M27.5 16.6835L28.5103 19.2744H31.7798L29.1347 20.8758L30.145 23.4667L27.5 21.8654L24.855 23.4667L25.8653 20.8758L23.2202 19.2744H26.4897L27.5 16.6835Z" fill="#7653FC"/>
</svg>
